<?xml version="1.0" encoding="UTF-8"?>
<!DOCTYPE svg PUBLIC "-//W3C//DTD SVG 1.1//EN" "http://www.w3.org/Graphics/SVG/1.1/DTD/svg11.dtd">
<!-- Creator: CorelDRAW X5 -->
<svg xmlns="http://www.w3.org/2000/svg" xml:space="preserve" width="145.935mm" height="60.96mm" style="shape-rendering:geometricPrecision; text-rendering:geometricPrecision; image-rendering:optimizeQuality; fill-rule:evenodd; clip-rule:evenodd"
viewBox="0 0 14594 6096"
 xmlns:xlink="http://www.w3.org/1999/xlink">
 <defs>
  <style type="text/css">
   <![CDATA[
    .fil0 {fill:#25387B}
    .fil1 {fill:#DF2128}
    .fil3 {fill:#25387B;fill-rule:nonzero}
    .fil2 {fill:#25387C;fill-rule:nonzero}
   ]]>
  </style>
 </defs>
 <g id="__x0023_Layer_x0020_1">
  <metadata id="CorelCorpID_0Corel-Layer"/>
  <polygon class="fil0" points="9608,4378 10526,0 13956,0 13727,1095 12011,1095 11897,1642 13356,1642 13126,2737 11667,2737 11552,3284 13268,3284 13038,4378 "/>
  <path class="fil1" d="M0 4378c3051,-1459 7180,-2390 10946,-2736 1017,-94 2025,-146 3429,-146 55,0 146,-18 219,-37l-283 1350c-15,73 -137,109 -228,109 -8604,0 -13754,1459 -13754,1459l-328 0z"/>
  <polygon class="fil0" points="4620,4378 5538,0 7180,0 8157,1988 8573,0 10215,0 9297,4378 7656,4378 6694,2317 6262,4378 "/>
  <path class="fil0" d="M3051 2554l535 -2554 1642 0 -642 3065c-199,949 -937,1313 -1917,1313l-1209 0 275 -1313 547 0c401,0 692,-146 769,-511z"/>
  <polygon class="fil2" points="8315,5832 8350,5599 8715,5599 8747,5353 8383,5353 8408,5169 8785,5169 8818,4923 8232,4923 8077,6077 8690,6077 8724,5832 "/>
  <path class="fil2" d="M9606 4923l-255 0 -120 210c-18,32 -39,70 -63,115 -19,-60 -29,-92 -31,-99l-76 -226 -218 0 184 567 -331 587 260 0 106 -186c24,-43 44,-79 60,-109 9,31 20,67 33,108l60 186 231 0 -183 -545 342 -609z"/>
  <path class="fil2" d="M10192 5229c0,-63 -10,-119 -28,-166 -20,-49 -48,-85 -83,-107 -35,-22 -81,-33 -138,-33l-314 0 -156 1154 209 0 56 -416 65 0c65,0 109,-3 134,-8 43,-9 78,-23 105,-42 26,-18 51,-45 73,-80 22,-34 40,-78 55,-134 14,-55 22,-111 22,-169zm-387 -63l0 0 76 0c60,0 74,7 75,7 8,4 14,12 18,22 6,13 9,30 9,52 0,34 -7,66 -19,95 -12,27 -28,45 -47,57 -12,7 -45,18 -137,18l-8 0 34 -251z"/>
  <path class="fil2" d="M10746 5673c-10,-27 -21,-50 -32,-71 60,-21 108,-60 141,-115 39,-65 58,-148 58,-246 0,-69 -10,-128 -30,-178 -21,-52 -50,-89 -86,-110 -35,-20 -81,-30 -141,-30l-340 0 -156 1154 209 0 61 -452 31 0c34,0 46,8 49,11 13,14 33,48 56,129 36,129 61,225 73,286l5 25 222 0 -10 -40c-40,-156 -77,-279 -109,-365zm-256 -504l0 0 132 0c50,0 61,9 61,9 14,14 21,36 21,66 0,29 -6,57 -19,83 -12,25 -27,42 -47,54 -12,7 -45,17 -139,17l-41 0 31 -230z"/>
  <polygon class="fil3" points="11542,5599 11574,5353 11210,5353 11235,5169 11612,5169 11645,4923 11059,4923 10904,6077 11517,6077 11551,5832 11142,5832 11177,5599 "/>
  <path class="fil2" d="M11979 5146c31,0 52,9 67,29 17,23 27,57 30,103l2 32 201 -14 -1 -31c-5,-106 -32,-192 -81,-257 -51,-68 -124,-103 -217,-103 -92,0 -163,35 -212,104 -47,66 -70,149 -70,247 0,56 8,106 24,149 16,44 38,80 67,107 27,26 67,57 124,96 67,45 87,65 93,73 13,17 19,37 19,62 0,30 -8,55 -25,75 -15,19 -40,28 -78,28 -60,0 -80,-24 -89,-42 -6,-11 -16,-41 -19,-123l-1 -33 -200 16 -1 29c-1,76 8,145 27,204 20,62 56,112 106,147 50,35 109,53 176,53 98,0 176,-39 231,-115 53,-73 80,-162 80,-265 0,-84 -18,-154 -55,-209 -25,-38 -78,-84 -164,-141 -63,-42 -87,-66 -97,-79 -11,-15 -17,-34 -17,-58 0,-26 6,-47 19,-63 11,-14 31,-21 61,-21z"/>
  <path class="fil2" d="M12691 5366c-63,-42 -87,-66 -97,-79 -11,-15 -17,-34 -17,-58 0,-26 6,-47 19,-63 11,-14 31,-21 61,-21 31,0 52,9 67,29 17,23 27,57 30,103l2 32 201 -14 -1 -31c-5,-106 -32,-192 -81,-257 -51,-68 -124,-103 -217,-103 -92,0 -163,35 -212,104 -47,66 -70,149 -70,247 0,56 8,106 24,149 16,44 38,80 67,107 27,26 67,57 124,96 67,45 87,65 93,73 13,17 19,37 19,62 0,30 -8,55 -25,75 -15,19 -40,28 -78,28 -60,0 -80,-24 -89,-42 -6,-11 -16,-41 -19,-123l-1 -33 -200 16 0 29c-1,76 8,145 27,204 20,62 56,112 106,147 50,35 109,53 176,53 98,0 176,-39 231,-115 53,-73 80,-162 80,-265 0,-84 -18,-154 -55,-209 -25,-38 -78,-84 -163,-141z"/>
 </g>
</svg>
